<?xml version="1.0" standalone="no"?>
<!DOCTYPE svg PUBLIC "-//W3C//DTD SVG 1.1//EN" "http://www.w3.org/Graphics/SVG/1.1/DTD/svg11.dtd">
<!--Generator: Xara Designer (www.xara.com), SVG filter version: 6.4.0.3-->
<svg fill="none" fill-rule="evenodd" stroke="black" stroke-width="0.501" stroke-linejoin="bevel" stroke-miterlimit="10" font-family="Times New Roman" font-size="16" style="font-variant-ligatures:none" xmlns:xlink="http://www.w3.org/1999/xlink" xmlns="http://www.w3.org/2000/svg" version="1.1" overflow="visible" width="145.971pt" height="195.175pt" viewBox="118.985 -289.573 145.971 195.175">
 <defs>
	</defs>
 <g id="01 #FF0000" transform="scale(1 -1)">
  <g id="Group" stroke-linejoin="miter">
   <path d="M 238.174,208.364 C 225.261,217.901 214.019,228.901 203.684,245.119 C 201.606,221.239 201.471,151.521 203.846,107.934 C 200.741,107.104 195.824,105.966 193.229,104.451 C 191.046,102.534 187.979,99.729 185.034,98.256 C 167.349,121.331 146.334,144.556 123.916,161.551 C 129.681,166.081 140.429,171.484 147.086,172.971 C 160.449,161.696 170.191,149.909 180.171,134.576 C 183.471,171.914 182.456,212.539 180.171,248.859 C 179.781,255.134 177.381,263.201 172.056,266.944 C 176.211,272.496 191.024,282.614 197.209,285.756 C 215.111,263.229 237.461,237.284 260.104,220.179 C 254.441,215.289 244.854,210.584 238.174,208.364 L 238.174,208.364 Z" stroke="#ff0000" stroke-width="6" marker-start="none" marker-end="none"/>
  </g>
 </g>
</svg>
