<?xml version="1.0" standalone="no"?>
<!DOCTYPE svg PUBLIC "-//W3C//DTD SVG 1.1//EN" "http://www.w3.org/Graphics/SVG/1.1/DTD/svg11.dtd">
<!--Generator: Xara Designer (www.xara.com), SVG filter version: 6.4.0.3-->
<svg fill="none" fill-rule="evenodd" stroke="black" stroke-width="0.501" stroke-linejoin="bevel" stroke-miterlimit="10" font-family="Times New Roman" font-size="16" style="font-variant-ligatures:none" xmlns:xlink="http://www.w3.org/1999/xlink" xmlns="http://www.w3.org/2000/svg" version="1.1" overflow="visible" width="109.867pt" height="176.669pt" viewBox="137.728 -280.947 109.867 176.669">
 <defs>
	</defs>
 <g id="02 #FF6600" transform="scale(1 -1)">
  <g id="Group" stroke-linejoin="miter">
   <path d="M 241.077,248.788 C 225.522,234.661 211.991,224.062 196.436,212.912 C 193.565,214.174 190.692,215.437 187.816,216.706 C 177.939,224.332 168.939,232.251 162.032,240.874 C 164.142,207.774 163.882,174.679 162.032,141.584 C 171.264,152.118 181.186,160.823 191.405,168.727 C 195.032,168.416 198.46,167.503 201.757,166.206 C 214.587,152.349 228.619,141.614 243.091,132.048 C 238.611,126.631 231.275,120.647 226.915,117.581 C 214.742,125.448 205.647,132.203 195.464,144.046 C 181.056,135.186 170.046,122.166 158.69,109.567 C 156.791,108.926 154.891,108.284 152.992,107.643 C 148.964,110.839 144.939,114.042 140.91,117.239 C 145.385,166.887 145.671,216.234 140.91,265.216 C 148.256,268.387 151.139,270.998 155.719,276.356 C 167.641,262.544 180.906,245.331 195.464,233.834 C 208.232,243.074 219.519,257.082 229.646,266.658 C 234.126,261.241 238.201,254.206 241.077,248.788 L 241.077,248.788 Z" stroke="#ff6600" stroke-width="6" marker-start="none" marker-end="none"/>
  </g>
 </g>
</svg>
